<svg width="22" height="25" viewBox="0 0 22 25" fill="none" xmlns="http://www.w3.org/2000/svg">
<path d="M16.7903 11.744C17.1133 11.939 17.1133 12.406 16.7903 12.601L4.24528 19.971C3.91228 20.171 3.48828 19.932 3.48828 19.542L3.49428 4.874C3.49428 4.489 3.91628 4.245 4.25228 4.446L16.7903 11.744ZM21.2733 12.173C21.2733 11.413 20.9033 10.652 20.1623 10.207L3.98228 0.5C2.45928 -0.415 0.510277 0.682 0.510277 2.465L0.510276 21.881C0.510276 23.664 2.45928 24.76 3.98228 23.846L20.1623 14.139C20.9033 13.693 21.2733 12.934 21.2733 12.173Z" fill="white"/>
</svg>
