<svg width="24" height="23" viewBox="0 0 24 23" fill="none" xmlns="http://www.w3.org/2000/svg">
<path d="M9.46313 11.4877L1.89358 18.8346L2.39504 19.3512L1.89358 18.8346C1.54218 19.1756 1.36337 19.6275 1.36337 20.0814C1.36337 21.1021 2.21713 21.8326 3.14587 21.8326C3.59237 21.8326 4.04952 21.6679 4.39959 21.3282L12 13.9512L19.6005 21.3282C19.9506 21.6679 20.4077 21.8326 20.8542 21.8326C21.783 21.8326 22.6367 21.1021 22.6367 20.0814C22.6367 19.6275 22.4579 19.1756 22.1065 18.8346L14.5369 11.4877L22.1079 4.14071L22.1097 4.13894C22.4586 3.798 22.6367 3.34686 22.6367 2.8925C22.6367 1.87628 21.7891 1.14262 20.8542 1.14262C20.4077 1.14262 19.9506 1.30732 19.6005 1.64709L19.6005 1.64714L12 9.02529L4.39963 1.64714L4.39959 1.64709C4.04952 1.30732 3.59237 1.14262 3.14587 1.14262C2.21098 1.14262 1.36337 1.87628 1.36337 2.8925C1.36337 3.34686 1.54151 3.798 1.8904 4.13894L1.89221 4.1407L9.46313 11.4877Z" fill="white" stroke="white" stroke-width="1.44"/>
</svg>
